<svg width="18" height="12" viewBox="0 0 18 12" fill="none" xmlns="http://www.w3.org/2000/svg">
<path d="M17.6896 12H0.310359C0.138972 12 0 11.8586 0 11.6842V0.315804C0 0.14141 0.138972 0 0.310359 0H17.6896C17.861 0 18 0.14141 18 0.315804V11.6842C18 11.8586 17.861 12 17.6896 12Z" fill="#41479B"/>
<path d="M17.9999 0.315804C17.9999 0.14141 17.861 0 17.6896 0H16.3011L10.5517 3.83296V0H7.44821V3.83296L1.69881 0H0.310358C0.138972 0 0 0.14141 0 0.315804V1.13254L4.93272 4.42104H0V7.57893H4.93272L0 10.8675V11.6842C0 11.8586 0.138972 12 0.310358 12H1.69885L7.44828 8.16704V12H10.5517V8.16704L16.3012 12H17.6896C17.861 12 18 11.8586 18 11.6842V10.8675L13.0673 7.57896H17.9999V4.42107H13.0672L17.9999 1.13254V0.315804Z" fill="#F5F5F5"/>
<path d="M17.9649 4.96563H9.91168V0.00976562H8.05323V4.96563H0V6.82405H8.05323V11.7799H9.91168V6.82405H17.9649V4.96563Z" fill="#FF4B55"/>
<path d="M6.27889 7.44336L0.00878906 11.5134C0.0307189 11.663 0.154052 11.7797 0.309736 11.7797H0.736368L7.41672 7.44339H6.27889V7.44336Z" fill="#FF4B55"/>
<path d="M12.1544 7.44336H11.0166L17.6872 11.7733C17.8427 11.7568 17.9654 11.6298 17.9654 11.47V11.2153L12.1544 7.44336Z" fill="#FF4B55"/>
<path d="M0 0.661513L5.67646 4.34621H6.81428L0.180456 0.0400391C0.0744912 0.0892671 0 0.195057 0 0.319583V0.661513Z" fill="#FF4B55"/>
<path d="M11.6691 4.34612L17.9542 0.266222C17.9281 0.12159 17.8074 0.00976562 17.6553 0.00976562H17.2115L10.5312 4.34612H11.6691Z" fill="#FF4B55"/>
</svg>
