<svg width="17" height="14" viewBox="0 0 17 14" fill="none" xmlns="http://www.w3.org/2000/svg">
<path fill-rule="evenodd" clip-rule="evenodd" d="M16.2904 0V1.02273C14.8432 1.55149 13.7092 2.38288 12.8882 3.51693C12.0673 4.65098 11.6568 5.83024 11.6568 7.05473C11.6568 7.31911 11.6985 7.51391 11.782 7.63915C11.8377 7.72264 11.9003 7.76438 11.9699 7.76438C12.0394 7.76438 12.1438 7.71568 12.2829 7.61827C12.7282 7.29824 13.2917 7.13822 13.9736 7.13822C14.7667 7.13822 15.4694 7.46173 16.0816 8.10877C16.6939 8.7558 17 9.52458 17 10.4151C17 11.3474 16.6487 12.1684 15.946 12.878C15.2433 13.5877 14.391 13.9425 13.3891 13.9425C12.2203 13.9425 11.2115 13.4624 10.3627 12.5023C9.51391 11.5422 9.08952 10.2551 9.08952 8.641C9.08952 6.76251 9.66697 5.07886 10.8219 3.58998C11.9768 2.10111 13.7996 0.904457 16.2904 0ZM7.20083 0V1.02273C5.7537 1.55149 4.61967 2.38288 3.7987 3.51693C2.97773 4.65098 2.56725 5.83024 2.56725 7.05473C2.56725 7.31911 2.609 7.51391 2.69249 7.63915C2.74814 7.72264 2.81076 7.76438 2.88033 7.76438C2.94991 7.76438 3.05427 7.71568 3.19341 7.61827C3.63868 7.29824 4.20222 7.13822 4.88404 7.13822C5.67718 7.13822 6.37987 7.46173 6.99212 8.10877C7.60436 8.7558 7.91048 9.52458 7.91048 10.4151C7.91048 11.3474 7.55914 12.1684 6.85645 12.878C6.15375 13.5877 5.30149 13.9425 4.29963 13.9425C3.13079 13.9425 2.12199 13.4624 1.27319 12.5023C0.424393 11.5422 0 10.2551 0 8.641C0 6.76251 0.577453 5.07886 1.73237 3.58998C2.8873 2.10111 4.7101 0.904457 7.20083 0Z" fill="#F58220"/>
</svg>
